<svg width="263.52" height="70.16" xmlns="http://www.w3.org/2000/svg"><g fill="#FFF" fill-rule="nonzero"><path d="M12.43 0H0v43.94h33.33v-9.86h-20.9zM69.93 24.04c0 3.73-.72 6.4-2.17 8.03-1.44 1.63-3.46 2.45-6.06 2.45-2.6 0-4.62-.82-6.09-2.45-1.47-1.63-2.2-4.31-2.2-8.03V0H40.98v24.42c0 6.49 1.81 11.51 5.43 15.07 3.62 3.56 8.67 5.34 15.16 5.34s11.5-1.78 15.16-5.34c3.66-3.56 5.49-8.58 5.49-15.07V0h-12.3v24.04h.01ZM134.52 0h-13.37l-8.68 12.71L103.7 0h-14l15.33 21.64-16.02 22.3h14.19l8.97-13.6 9.11 13.6h14.31l-16.31-22.72zM142.06 43.94h12.42V28.87h19.34v-9.6h-19.34V9.66h21.97V0h-34.39zM198.3 0h-12.43v43.94h33.33v-9.86h-20.9zM263.52 0h-12.06L241 17.47 230.62 0h-13.18l16.83 28.02v15.92h12.42V28.29zM0 70.01v-8.57h.75l3.92 6.69h-.39l3.88-6.69h.75v8.57h-.87V62.8h.21l-3.58 6.12h-.43L.64 62.8h.23v7.21H0zM16.13 70.09c-.65 0-1.24-.11-1.79-.33-.55-.22-1.03-.52-1.43-.92-.4-.4-.72-.86-.94-1.38-.22-.52-.34-1.1-.34-1.73 0-.63.11-1.21.34-1.73.23-.52.54-.99.94-1.38.4-.4.88-.7 1.43-.92.55-.22 1.15-.32 1.8-.32.65 0 1.24.11 1.79.32.55.22 1.02.52 1.43.91.4.39.72.85.94 1.38.22.53.34 1.11.34 1.74 0 .63-.11 1.21-.34 1.74a4.164 4.164 0 0 1-2.37 2.29c-.55.22-1.14.33-1.79.33h-.01Zm0-.81c.51 0 .99-.09 1.43-.26.44-.18.82-.42 1.14-.75.32-.32.57-.7.75-1.13.18-.43.27-.9.27-1.41 0-.51-.09-.99-.27-1.41-.18-.43-.43-.8-.75-1.13-.32-.32-.7-.57-1.14-.75-.44-.18-.91-.26-1.43-.26-.52 0-.99.09-1.43.26-.44.18-.82.42-1.15.75-.33.32-.58.7-.76 1.13-.18.43-.27.9-.27 1.41 0 .51.09.98.27 1.41.18.43.43.81.76 1.13.33.32.71.57 1.15.75.44.18.92.26 1.43.26ZM23.35 70.01v-8.57h3.49c.91 0 1.72.18 2.41.55.69.37 1.23.87 1.61 1.51.38.64.58 1.39.58 2.23 0 .84-.19 1.58-.58 2.23-.38.64-.92 1.15-1.61 1.51-.69.36-1.49.55-2.41.55h-3.49v-.01Zm.91-.78h2.54c.76 0 1.42-.15 1.98-.45.56-.3.99-.71 1.3-1.24.31-.53.47-1.13.47-1.82 0-.69-.16-1.3-.47-1.83-.31-.52-.75-.93-1.3-1.23-.56-.3-1.22-.45-1.98-.45h-2.54v7.02ZM35.06 69.23h5.16v.78h-6.06v-8.57h5.88v.78h-4.97v7.01h-.01Zm-.1-3.96h4.53v.77h-4.53v-.77ZM43.03 70.01v-8.57h3.21c.73 0 1.35.12 1.87.35.52.23.92.57 1.21 1 .29.43.42.97.42 1.59 0 .62-.14 1.12-.42 1.56-.28.44-.68.77-1.21 1-.52.23-1.15.35-1.87.35h-2.71l.4-.42v3.14h-.91.01Zm.91-3.06-.4-.43h2.68c.86 0 1.51-.19 1.95-.56.45-.38.67-.9.67-1.58s-.22-1.22-.67-1.59c-.45-.37-1.1-.56-1.95-.56h-2.68l.4-.43v5.16-.01Zm4.95 3.06-2.2-3.11h.98l2.22 3.11h-1ZM52.57 70.01v-8.57h.75l5.92 7.45h-.39v-7.45h.89v8.57h-.75l-5.9-7.45h.39v7.45zM69.19 70.09c-.56 0-1.05-.09-1.48-.28-.43-.18-.77-.44-1.02-.77s-.37-.71-.37-1.14c0-.37.08-.7.24-1.01.16-.31.43-.61.79-.91.36-.3.85-.61 1.45-.94.51-.29.92-.53 1.21-.74.29-.21.5-.41.62-.6s.18-.4.18-.62c0-.32-.11-.58-.32-.77-.21-.19-.52-.29-.92-.29-.43 0-.77.11-1 .33-.24.22-.36.5-.36.84 0 .17.03.33.08.49.05.16.16.33.31.52s.36.42.63.71l4.53 4.67-.5.58-4.73-4.86c-.29-.3-.51-.57-.68-.79-.17-.22-.28-.44-.35-.64-.07-.2-.1-.42-.1-.65 0-.37.09-.69.26-.96s.43-.49.75-.64c.33-.15.71-.23 1.15-.23.4 0 .75.07 1.05.2.3.13.53.33.7.58.17.25.25.56.25.92 0 .31-.08.6-.23.87-.15.27-.4.53-.74.79-.34.26-.81.55-1.4.86-.51.29-.92.55-1.22.78-.3.24-.51.47-.63.69-.12.22-.18.47-.18.74 0 .31.09.58.26.81.18.23.42.41.73.54.31.13.68.19 1.08.19a3.2 3.2 0 0 0 1.53-.36c.45-.24.83-.6 1.13-1.08.31-.48.53-1.09.67-1.81l.7.22c-.16.82-.42 1.5-.8 2.06-.38.56-.84.98-1.4 1.26-.56.28-1.18.43-1.89.43l.02.01ZM83.6 70.09c-.65 0-1.24-.11-1.79-.33-.55-.22-1.02-.52-1.42-.91-.4-.39-.71-.85-.94-1.38-.22-.53-.34-1.11-.34-1.74 0-.63.11-1.21.34-1.74a4.164 4.164 0 0 1 2.37-2.29c.55-.22 1.14-.32 1.79-.32.65 0 1.2.1 1.75.31s1.01.52 1.38.94l-.58.58c-.35-.36-.74-.62-1.16-.78a3.83 3.83 0 0 0-1.37-.24c-.51 0-.99.09-1.43.26-.44.17-.82.42-1.15.75-.33.32-.58.7-.77 1.13-.18.43-.28.9-.28 1.41 0 .51.09.99.28 1.41.19.42.44.8.77 1.13.33.32.71.57 1.15.75.44.18.92.26 1.43.26.51 0 .95-.08 1.37-.24.42-.16.81-.42 1.16-.78l.58.58c-.38.42-.84.73-1.38.94-.55.21-1.14.32-1.76.32v-.02ZM92.94 70.09c-.65 0-1.24-.11-1.79-.33-.55-.22-1.03-.52-1.43-.92-.4-.4-.72-.86-.94-1.38-.22-.52-.34-1.1-.34-1.73 0-.63.11-1.21.34-1.73.23-.52.54-.99.94-1.38.4-.4.88-.7 1.43-.92.55-.22 1.15-.32 1.8-.32.65 0 1.24.11 1.79.32.55.22 1.02.52 1.43.91.4.39.72.85.94 1.38.22.53.34 1.11.34 1.74 0 .63-.11 1.21-.34 1.74a4.164 4.164 0 0 1-2.37 2.29c-.55.22-1.14.33-1.79.33h-.01Zm0-.81c.51 0 .99-.09 1.43-.26.44-.18.82-.42 1.14-.75.32-.32.57-.7.75-1.13.18-.43.27-.9.27-1.41 0-.51-.09-.99-.27-1.41-.18-.43-.43-.8-.75-1.13-.32-.32-.7-.57-1.14-.75-.44-.18-.91-.26-1.43-.26-.52 0-.99.09-1.43.26-.44.18-.82.42-1.15.75-.33.32-.58.7-.76 1.13-.18.43-.27.9-.27 1.41 0 .51.09.98.27 1.41.18.43.43.81.76 1.13.33.32.71.57 1.15.75.44.18.92.26 1.43.26ZM100.15 70.01v-8.57h.75l5.92 7.45h-.39v-7.45h.89v8.57h-.75l-5.9-7.45h.39v7.45h-.91zM112.46 70.01v-7.79h-3.01v-.78h6.93v.78h-3.01v7.79h-.91zM119.42 69.23h5.16v.78h-6.06v-8.57h5.88v.78h-4.97v7.01h-.01Zm-.1-3.96h4.53v.77h-4.53v-.77ZM127.39 70.01v-8.57h.75l3.92 6.69h-.39l3.88-6.69h.75v8.57h-.87V62.8h.21l-3.58 6.12h-.43l-3.6-6.12h.23v7.21h-.87zM139.77 70.01v-8.57h3.21c.73 0 1.35.12 1.87.35.52.23.92.57 1.21 1 .29.43.42.97.42 1.59 0 .62-.14 1.12-.42 1.56-.28.44-.68.77-1.21 1.01-.52.24-1.15.36-1.87.36h-2.71l.4-.43v3.14h-.91l.01-.01Zm.91-3.06-.4-.44h2.68c.86 0 1.51-.19 1.95-.56.44-.37.67-.9.67-1.57s-.22-1.22-.67-1.59c-.45-.37-1.1-.56-1.95-.56h-2.68l.4-.43v5.16-.01ZM153 70.09c-.65 0-1.24-.11-1.79-.33-.55-.22-1.03-.52-1.43-.92-.4-.4-.72-.86-.94-1.38-.22-.52-.34-1.1-.34-1.73 0-.63.11-1.21.34-1.73.23-.52.54-.99.94-1.38.4-.4.88-.7 1.43-.92.55-.22 1.15-.32 1.8-.32.65 0 1.24.11 1.79.32.55.22 1.02.52 1.43.91.4.39.72.85.94 1.38.22.53.34 1.11.34 1.74 0 .63-.11 1.21-.34 1.74a4.164 4.164 0 0 1-2.37 2.29c-.55.22-1.14.33-1.79.33H153Zm0-.81c.51 0 .99-.09 1.43-.26.44-.18.82-.42 1.14-.75.32-.32.57-.7.75-1.13.18-.43.27-.9.27-1.41 0-.51-.09-.99-.27-1.41-.18-.43-.43-.8-.75-1.13-.32-.32-.7-.57-1.14-.75-.44-.18-.91-.26-1.43-.26-.52 0-.99.09-1.43.26-.44.18-.82.42-1.15.75-.33.32-.58.7-.76 1.13-.18.43-.27.9-.27 1.41 0 .51.09.98.27 1.41.18.43.43.81.76 1.13.33.32.71.57 1.15.75.44.18.92.26 1.43.26ZM160.21 70.01v-8.57h3.21c.73 0 1.35.12 1.87.35.52.23.92.57 1.21 1 .29.43.42.97.42 1.59 0 .62-.14 1.12-.42 1.56-.28.44-.68.77-1.21 1-.52.23-1.15.35-1.87.35h-2.71l.4-.42v3.14h-.91.01Zm.91-3.06-.4-.43h2.68c.86 0 1.51-.19 1.95-.56.45-.38.67-.9.67-1.58s-.22-1.22-.67-1.59c-.45-.37-1.1-.56-1.95-.56h-2.68l.4-.43v5.16-.01Zm4.95 3.06-2.2-3.11h.98l2.22 3.11h-1ZM168.38 70.01l3.92-8.57h.89l3.92 8.57h-.96l-3.6-8.05h.37l-3.6 8.05h-.94Zm1.54-2.29.27-.73h4.98l.27.73h-5.52ZM179.22 70.01v-8.57h3.21c.73 0 1.35.12 1.87.35.52.23.92.57 1.21 1 .29.43.42.97.42 1.59 0 .62-.14 1.12-.42 1.56-.28.44-.68.77-1.21 1-.52.23-1.15.35-1.87.35h-2.71l.4-.42v3.14h-.91.01Zm.91-3.06-.4-.43h2.68c.86 0 1.51-.19 1.95-.56.45-.38.67-.9.67-1.58s-.22-1.22-.67-1.59c-.45-.37-1.1-.56-1.95-.56h-2.68l.4-.43v5.16-.01Zm4.95 3.06-2.2-3.11h.98l2.22 3.11h-1ZM190.69 70.01v-3.18l.21.56-3.64-5.95h.97l3.2 5.23h-.51l3.2-5.23h.91l-3.64 5.95.21-.56v3.18h-.89zM201.9 70.01h-.91v-8.57h5.88v.78h-4.97v7.79Zm-.1-4.42h4.53v.78h-4.53v-.78ZM209.44 70.01v-8.57h.91v7.79h4.8v.78h-5.71zM218.48 70.01v-3.18l.21.56-3.64-5.95h.97l3.2 5.23h-.51l3.2-5.23h.91l-3.64 5.95.21-.56v3.18h-.89zM224.71 70.01v-8.57h.91v8.57zM229.09 70.01v-8.57h.75l5.92 7.45h-.39v-7.45h.89v8.57h-.75l-5.9-7.45h.39v7.45zM243.5 70.09c-.65 0-1.26-.11-1.81-.33-.55-.22-1.03-.52-1.43-.91-.4-.39-.72-.85-.94-1.38-.22-.53-.34-1.11-.34-1.74 0-.63.11-1.21.34-1.74.23-.53.54-.99.95-1.38.41-.39.89-.7 1.44-.91.55-.22 1.15-.32 1.81-.32.66 0 1.25.1 1.79.31.54.2 1.01.51 1.39.93l-.56.58c-.36-.36-.76-.62-1.19-.77-.43-.15-.9-.23-1.4-.23-.53 0-1.02.09-1.46.26-.44.17-.83.42-1.16.75-.33.33-.59.7-.77 1.13-.18.43-.28.9-.28 1.41 0 .51.09.98.28 1.41.19.43.44.81.77 1.13.33.32.72.57 1.16.75.44.18.93.26 1.45.26.49 0 .95-.07 1.39-.22.44-.15.84-.4 1.21-.75l.51.69c-.41.36-.89.63-1.43.81-.55.18-1.12.28-1.71.28l-.01-.02Zm2.28-1.2v-3.16h.87V69l-.87-.11Z"/></g></svg>
